<svg width="640" height="640" viewBox="0 0 640 640" fill="none" xmlns="http://www.w3.org/2000/svg">
<path d="M538.5 288.29C538.5 324.707 508.964 354.229 472.53 354.229C436.095 354.229 406.56 324.707 406.56 288.29C406.56 251.873 436.095 222.351 472.53 222.351C508.964 222.351 538.5 251.873 538.5 288.29Z" fill="white"/>
<path d="M101.5 80H232.996V169.672C232.996 169.672 259.293 80 375.097 80C492.608 80 525.563 169.784 534.805 220.143C518.379 205.122 496.502 195.958 472.484 195.958C441.066 195.958 413.313 211.638 396.629 235.596C385.889 214.497 363.945 188.9 320.802 189.599C263.492 190.527 243.433 234.945 237.441 254.097C235.664 259.774 235.183 265.724 235.139 271.672L232.984 560H101.5V80Z" fill="white"/>
<path d="M406.144 352.495V560H538.407V352.922C521.648 369.993 498.303 380.583 472.484 380.583C446.45 380.583 422.933 369.816 406.144 352.495Z" fill="white"/>
</svg>
