<svg width="22" height="24" viewBox="0 0 22 24" fill="none" xmlns="http://www.w3.org/2000/svg">
<path d="M22 10.4145C22 12.2353 20.5131 13.7114 18.6788 13.7114C16.8446 13.7114 15.3577 12.2353 15.3577 10.4145C15.3577 8.59364 16.8446 7.11756 18.6788 7.11756C20.5131 7.11756 22 8.59364 22 10.4145Z" fill="#24262D"/>
<path d="M0 0H6.61995V4.48358C6.61995 4.48358 7.94381 0 13.7738 0C19.6897 0 21.3487 4.48921 21.814 7.00713C20.987 6.25611 19.8857 5.79792 18.6765 5.79792C17.0949 5.79792 15.6977 6.58192 14.8578 7.77981C14.3171 6.72483 13.2123 5.44501 11.0404 5.47994C8.15519 5.52634 7.14537 7.74727 6.84369 8.70486C6.75426 8.98872 6.73006 9.28622 6.72782 9.58362L6.61931 24H0V0Z" fill="#24262D"/>
<path d="M15.3368 13.6248V24H21.9953V13.6461C21.1516 14.4997 19.9764 15.0291 18.6765 15.0291C17.3659 15.0291 16.182 14.4908 15.3368 13.6248Z" fill="#24262D"/>
</svg>
