<svg width="24" height="24" viewBox="0 0 24 24" fill="none" xmlns="http://www.w3.org/2000/svg">
<path d="M21.1996 10.6787C21.1996 12.1961 19.9696 13.4262 18.4522 13.4262C16.9348 13.4262 15.7048 12.1961 15.7048 10.6787C15.7048 9.16137 16.9348 7.9313 18.4522 7.9313C19.9696 7.9313 21.1996 9.16137 21.1996 10.6787Z" fill="#24262D"/>
<path d="M3 2H8.4764V5.73632C8.4764 5.73632 9.57157 2 14.3944 2C19.2884 2 20.6609 5.741 21.0458 7.83928C20.3617 7.21343 19.4506 6.8316 18.4503 6.8316C17.1419 6.8316 15.986 7.48493 15.2912 8.48317C14.8439 7.60403 13.93 6.53751 12.1332 6.56661C9.74644 6.60528 8.91106 8.45605 8.66149 9.25405C8.58751 9.4906 8.56749 9.73851 8.56563 9.98635L8.47587 22H3V2Z" fill="#24262D"/>
<path d="M15.6875 13.354V22H21.1958V13.3718C20.4978 14.083 19.5256 14.5243 18.4503 14.5243C17.3661 14.5243 16.3866 14.0757 15.6875 13.354Z" fill="#24262D"/>
</svg>
